<svg id="icon-sprite">

  <symbol id="icon-twitter" viewBox="0 0 16 13">
    <path d="M5,13c6,0,9.3-5,9.3-9.3c0-0.1,0-0.3,0-0.4c0.6-0.5,1.2-1,1.6-1.7c-0.6,0.3-1.2,0.4-1.9,0.5c0.7-0.4,1.2-1.1,1.4-1.8 c-0.6,0.4-1.3,0.7-2.1,0.8c-0.6-0.6-1.5-1-2.4-1C9.3,0,7.8,1.5,7.8,3.3c0,0.3,0,0.5,0.1,0.7C5.1,3.9,2.7,2.6,1.1,0.6 C0.8,1.1,0.7,1.6,0.7,2.2c0,1.1,0.6,2.1,1.5,2.7c-0.5,0-1-0.2-1.5-0.4c0,0,0,0,0,0c0,1.6,1.1,2.9,2.6,3.2C3,7.9,2.7,7.9,2.4,7.9 c-0.2,0-0.4,0-0.6-0.1c0.4,1.3,1.6,2.3,3.1,2.3c-1.1,0.9-2.5,1.4-4.1,1.4c-0.3,0-0.5,0-0.8,0C1.5,12.4,3.2,13,5,13"/>
  </symbol>

  <symbol id="icon-facebook" viewBox="0 0 16 16">
    <path d="M15.1,0H0.9C0.4,0,0,0.4,0,0.9v14.2C0,15.6,0.4,16,0.9,16h7.7V9.8H6.5V7.4h2.1V5.6c0-2.1,1.3-3.2,3.1-3.2 c0.9,0,1.6,0.1,1.9,0.1v2.2h-1.3c-1,0-1.2,0.5-1.2,1.2v1.5h2.4l-0.3,2.4H11V16h4.1c0.5,0,0.9-0.4,0.9-0.9V0.9C16,0.4,15.6,0,15.1,0z"/>
  </symbol>

  <symbol id="icon-youtube" viewBox="0 0 16 12.3">
    <path d="M15.7,2.4c-0.1-1.2-1-2-2.1-2.1c-5-0.3-6.2-0.3-11.2,0c-1.2,0.1-2,1-2.1,2.1c-0.4,3.5-0.4,4.1,0,7.6c0.1,1.2,1,2,2.1,2.1 c5,0.3,6.2,0.3,11.2,0c1.2-0.1,2-1,2.1-2.1C16.1,6.5,16.1,5.9,15.7,2.4z M10.3,6.5L6,9.1c-0.1,0.1-0.3,0.1-0.4,0 C5.5,9,5.4,8.9,5.4,8.8V3.5c0-0.1,0.1-0.2,0.2-0.3c0.1-0.1,0.3-0.1,0.4,0l4.3,2.6c0.1,0.1,0.2,0.2,0.2,0.3 C10.5,6.3,10.5,6.4,10.3,6.5z"/>
  </symbol>

  <symbol id="icon-rss" viewBox="0 0 16 16.2">
    <ellipse cx="2.2" cy="14" rx="2.2" ry="2.2"/>
    <path d="M10.6,16.2H7.5C7.5,12,4.1,8.6,0,8.6l0,0V5.5C5.9,5.5,10.6,10.3,10.6,16.2z"/>
    <path d="M12.8,16.2C12.8,9,7.1,3.2,0,3.2V0c8.8,0,16,7.2,16,16.2H12.8z"/>
  </symbol>

</svg>
